<?xml version="1.0" encoding="utf-8"?>
<!-- Generator: Adobe Illustrator 25.4.1, SVG Export Plug-In . SVG Version: 6.00 Build 0)  -->
<svg version="1.1" id="Layer_2_00000024710321217311264420000008818240804221576856_"
	 xmlns="http://www.w3.org/2000/svg" xmlns:xlink="http://www.w3.org/1999/xlink" x="0px" y="0px" viewBox="0 0 841.9 194"
	 style="enable-background:new 0 0 841.9 194;" xml:space="preserve">
<style type="text/css">
	.st0{fill:#103A5E;}
	.st1{fill:#898B8D;}
</style>
<g>
	<g>
		<g id="XMLID_59_">
			<path id="XMLID_72_" class="st0" d="M326.1,105.7l0.5-63.6L300,105.7h-18.9l-26.8-63.6l0.5,63.6h-19.7V23h30l25.7,60.7L316.2,23
				h29.6v82.7H326.1z"/>
			<path id="XMLID_69_" class="st0" d="M432.3,105.7l-7-15.6h-42.4l-7,15.6h-22.6l40-82.7h22.4l40,82.7H432.3z M404.2,43.1
				l-14.6,32.3h29.1L404.2,43.1z"/>
			<path id="XMLID_67_" class="st0" d="M524.4,45.1c-0.8-1.4-1.4-2.2-1.9-2.7c-5.2-6-14.8-7.3-22-7.3c-1.3,0-3.7,0-6.9,0.5
				c-0.7,0.1-11.6,0.9-11.6,9.1c0,4.2,2.9,6,6.6,7.1c5.9,1.8,20.6,3.9,26.6,5c5.9,1.1,8.4,1.6,11.3,2.6c4.8,1.6,16.8,5.9,16.6,21.2
				c0,7.5-2.7,19.3-19.6,24.7c-4.6,1.4-9,2-13.7,2.5c-2.9,0.2-5.9,0.4-8.8,0.4c-14.8,0-23-3-28.8-6.2c-0.9-0.5-3.3-1.9-5.7-3.7
				c-4.6-3.6-7.9-8.4-8.7-9.8c-0.8-1.2-1.4-2.3-2-3.5l18.9-4.8c4.9,10.3,17.7,12.9,27.8,12.9c0.8,0,11.2,0.1,16.9-3.8
				c1.1-0.7,4-3,4-7.1c0-2.2-0.9-4.2-2.7-5.5c-2.6-2-8-2.8-15.5-4c-15.2-2.3-23.4-3.5-30.1-6.7c-3.7-1.8-13-7.1-13-19.7
				c0-11,6.8-16.5,10.1-18.8c5.3-3.6,13.8-7.1,28.6-7.1c14.1,0,21.6,2.5,27.4,5.3c2.1,0.9,6.1,2.8,10.3,7c2.7,2.7,3.7,4.3,5.6,7.5
				L524.4,45.1z"/>
			<path id="XMLID_65_" class="st0" d="M599.1,38.1v67.6h-20.9V38.1h-30.7V23h82.1v15.1H599.1z"/>
			<path id="XMLID_63_" class="st0" d="M638.2,105.7V23h77.1v14.9h-56.4v18.6h54.5v14.8h-54.5v19.7h58.7v14.8H638.2z"/>
			<path id="XMLID_60_" class="st0" d="M795.1,105.7l-22-33.3h-23.7v33.3h-20.6V23h57c7.1,0,10.3,0.5,13.7,1.5
				c10.7,3.2,16.5,12.3,16.5,23.2c0,2.1-0.1,6.2-2.2,10.9c-3.7,8.4-10.9,11-19.3,12.5l25.2,34.6H795.1z M793.3,41.7
				c-2.6-4-7.1-4.2-11.4-4.2h-32.6v20.3h33.2c0.1,0,3.4,0.1,5.2-0.4c2.5-0.6,7.3-2.7,7.3-9.5C795,47.1,794.9,44.1,793.3,41.7z"/>
		</g>
		<g id="XMLID_23_">
			<path id="XMLID_58_" class="st1" d="M431.8,156.9h14.5c0,4.2-1.2,7.7-3.6,10.4c-2.6,2.8-6.2,4.3-10.6,4.3
				c-5.1,0-9.1-1.9-11.8-5.7c-2.5-3.3-3.7-7.5-3.7-12.5c0-5,1.3-9.2,3.7-12.6c2.8-3.8,6.7-5.7,11.8-5.7c3.7,0,6.8,1.1,9.4,3.4
				c2.3,2,3.6,4.3,3.8,6.8l0,0.4h5.1l-0.1-0.6c-0.8-4.6-2.9-8.3-6.3-10.9c-3.3-2.4-7.3-3.7-12-3.7c-6.5,0-11.7,2.3-15.5,6.9
				c-3.4,4.2-5.1,9.5-5.1,15.8c0,6.3,1.7,11.6,5.1,15.8c3.7,4.6,9,6.9,15.5,6.9c6.7,0,11.6-2.5,14.5-7.6l0.5,6.7h3.9v-22.7h-19.1
				V156.9z"/>
			<path id="XMLID_55_" class="st1" d="M495.5,169.4c0-0.4-0.2-2.3-0.4-5.7c-0.3-5.3-2.4-8.5-6.1-9.7c2-0.7,3.6-1.9,4.8-3.5
				c1.4-2,2.2-4.5,2.2-7.3c0-3.8-1.4-6.8-4-8.8c-2.4-1.9-5.6-2.8-9.4-2.8h-20v43.6h5v-18.9h14.9c3.2,0,5.4,1.2,6.6,3.7
				c0.7,1.5,1.2,4.2,1.4,8.2c0.2,3.7,0.6,5.9,1.2,6.9l0.1,0.2h5.8l-0.7-0.8C496.4,173.5,495.8,171.9,495.5,169.4z M491,144
				c0,2.4-0.8,4.2-2.5,5.7c-1.7,1.4-3.8,2.2-6.2,2.2h-14.7V136h14.7c2.8,0,5,0.7,6.5,2.1C490.2,139.5,491,141.5,491,144z"/>
			<path id="XMLID_28_" class="st1" d="M529.1,130.6c-6.5,0-11.7,2.3-15.5,6.9c-3.4,4.2-5.1,9.5-5.1,15.8s1.7,11.6,5.1,15.8
				c3.7,4.6,9,6.9,15.5,6.9c6.5,0,11.7-2.3,15.4-6.9c3.4-4.2,5.1-9.5,5.1-15.8s-1.7-11.6-5.1-15.8
				C540.8,133,535.6,130.6,529.1,130.6z M544.6,153.3c0,5-1.2,9.2-3.7,12.5c-2.8,3.8-6.8,5.7-11.8,5.7c-5.1,0-9.1-1.9-11.8-5.7
				c-2.5-3.3-3.7-7.5-3.7-12.5c0-5,1.3-9.2,3.7-12.6c2.8-3.8,6.7-5.7,11.8-5.7c5.1,0,9.1,1.9,11.8,5.6
				C543.4,144.1,544.6,148.3,544.6,153.3z"/>
			<path id="XMLID_27_" class="st1" d="M590,158.4c0,8.9-3.9,13.2-12.1,13.2c-8.1,0-12-4.3-12-13.2v-26.9h-5v27.8
				c0,4.8,1.3,8.8,3.9,11.7c3,3.3,7.4,5,13.1,5c5.7,0,10.2-1.7,13.1-5c2.6-2.9,3.9-6.9,3.9-11.7v-27.8h-5V158.4z"/>
			<path id="XMLID_24_" class="st1" d="M639.6,134.9c-2.4-2.2-5.6-3.4-9.6-3.4h-19.4v43.6h5v-18.3h14.4c4,0,7.2-1.1,9.6-3.4
				c2.4-2.2,3.6-5.4,3.6-9.3S642,137.1,639.6,134.9z M638.2,144.2c0,2.7-0.8,4.7-2.4,6.1c-1.6,1.4-3.8,2.1-6.6,2.1h-13.5V136h13.5
				c2.8,0,5,0.7,6.5,2C637.3,139.5,638.2,141.5,638.2,144.2z"/>
		</g>
		<rect x="235.1" y="149.1" class="st0" width="139.2" height="8.6"/>
		<rect x="680.4" y="149.1" class="st0" width="139.2" height="8.6"/>
	</g>
	<g id="XMLID_13_">
		<polygon id="XMLID_22_" class="st0" points="23.4,172.4 41.3,171 41.3,64.4 23.4,63 		"/>
		<polygon id="XMLID_21_" class="st1" points="184,172.4 202.1,171 202.1,64.4 184,63 		"/>
		<path id="XMLID_20_" class="st0" d="M23.4,67.8c19.2,0.1,37.3,5.2,52.9,14.1c6.2,3.5,12,7.6,17.3,12.2c2.8,2.4,5.4,4.9,7.9,7.6
			c4,4.3,7.7,8.8,10.9,13.7c11.5,17.1,18.3,37.8,18.3,60c0,0.3,0,0.5,0,0.8h16.9c0-0.3,0-0.5,0-0.8c0-27.5-8.9-52.9-24-73.5
			c-3.3-4.6-7-8.9-10.9-12.9c-2.5-2.6-5.2-5.2-8-7.6c-5.4-4.7-11.2-8.9-17.3-12.6C68.7,57.5,46.8,51,23.4,51V67.8z"/>
		<path id="XMLID_19_" class="st1" d="M202.1,67.8c-19.2,0.1-37.3,5.2-52.9,14.1c-6.2,3.5-12,7.6-17.3,12.2
			c-2.8,2.4-5.4,4.9-7.9,7.6c-4,4.3-7.7,8.8-10.9,13.7c-11.5,17.1-18.3,37.8-18.3,60c0,0.3,0,0.5,0,0.8H78c0-0.3,0-0.5,0-0.8
			c0-27.5,8.9-52.9,24-73.5c3.3-4.6,7-8.9,10.9-12.9c2.5-2.6,5.2-5.2,8-7.6c5.4-4.7,11.2-8.9,17.3-12.6c18.7-11.3,40.6-17.8,64-17.9
			V67.8z"/>
		<path id="XMLID_18_" class="st0" d="M104.6,81.4c-5.4-4.7-11.2-8.9-17.3-12.6C68.7,57.5,46.8,51,23.4,51v16.9
			c19.2,0.1,37.3,5.2,52.9,14.1c6.2,3.5,12,7.6,17.3,12.2"/>
		<path id="XMLID_17_" class="st0" d="M23.4,19.2v21.2c26.3,0.1,51,7.7,71.7,20.8c5.4-5,11.2-9.7,17.3-13.9
			C87.2,29.7,56.5,19.3,23.4,19.2z"/>
		<path id="XMLID_16_" class="st0" d="M112.4,74.1c2.8,2.4,5.4,5,8,7.6c3.9,4,7.5,8.3,10.9,12.8c16.9,22.5,26.9,50.5,26.9,80.8
			c0,0.3,0,0.5,0,0.8h1.6h19.6h22.9v-17.5h-23.7c-3-28.4-13.6-54.5-29.7-76.2c-3.4-4.6-7-9-10.9-13.2c-2.6-2.8-5.3-5.5-8-8.1
			C123.6,65.1,117.8,69.4,112.4,74.1z"/>
		<path id="XMLID_15_" class="st1" d="M112.5,47.3c-6.1,4.2-11.9,8.9-17.3,13.9c-2.7,2.5-5.2,5-7.7,7.6c6.1,3.7,11.9,7.9,17.3,12.6
			c2.5-2.5,5.1-5,7.7-7.3c5.4-4.7,11.2-9,17.4-12.8c20.7-12.9,46.3-20.3,72.4-20.3c0.3,0-0.3,0,0,0V19.8c-0.3,0,0.3,0,0,0
			C169.3,19.8,137.6,30,112.5,47.3z"/>
		<path id="XMLID_14_" class="st1" d="M45.8,158.7L45.8,158.7H23.4v17.5h42.7v-5.9v0v0c1.2-28.6,11.2-54.9,27.5-76.2
			c-5.3-4.6-11.1-8.7-17.3-12.2C59.8,103.7,48.9,130.1,45.8,158.7z"/>
	</g>
</g>
</svg>
